<svg width="23" height="25" viewBox="0 0 23 25" fill="none" xmlns="http://www.w3.org/2000/svg">
<path d="M2.23592 0L0.274726 1.98316L10.947 12.4973L0.214844 23.0059L2.16532 25L14.9238 12.4973L2.23592 0ZM10.3694 0.0109827L8.39198 1.97218L18.8627 12.5027L8.5609 23.0278L10.5548 24.978L22.7851 12.4918L10.3694 0.0109827Z" fill="#471706"/>
<path d="M2.23592 0L0.274726 1.98316L10.947 12.4973L0.214844 23.0059L2.16532 25L14.9238 12.4973L2.23592 0ZM10.3694 0.0109827L8.39198 1.97218L18.8627 12.5027L8.5609 23.0278L10.5548 24.978L22.7851 12.4918L10.3694 0.0109827Z" fill="black" fill-opacity="0.2"/>
<path d="M2.23592 0L0.274726 1.98316L10.947 12.4973L0.214844 23.0059L2.16532 25L14.9238 12.4973L2.23592 0ZM10.3694 0.0109827L8.39198 1.97218L18.8627 12.5027L8.5609 23.0278L10.5548 24.978L22.7851 12.4918L10.3694 0.0109827Z" fill="black" fill-opacity="0.2"/>
<path d="M2.23592 0L0.274726 1.98316L10.947 12.4973L0.214844 23.0059L2.16532 25L14.9238 12.4973L2.23592 0ZM10.3694 0.0109827L8.39198 1.97218L18.8627 12.5027L8.5609 23.0278L10.5548 24.978L22.7851 12.4918L10.3694 0.0109827Z" fill="black" fill-opacity="0.2"/>
<path d="M2.23592 0L0.274726 1.98316L10.947 12.4973L0.214844 23.0059L2.16532 25L14.9238 12.4973L2.23592 0ZM10.3694 0.0109827L8.39198 1.97218L18.8627 12.5027L8.5609 23.0278L10.5548 24.978L22.7851 12.4918L10.3694 0.0109827Z" fill="black" fill-opacity="0.2"/>
</svg>
