<svg width="40" height="40" viewBox="0 0 40 40" fill="none" xmlns="http://www.w3.org/2000/svg">
<path d="M3.80982 0C1.70401 0 0 1.70401 0 3.80982V30.4775C0 32.5758 1.71151 34.2873 3.80982 34.2873H25.0905L21.2806 30.4775H3.80982V7.61929H30.4775V21.2806L34.2873 25.0905V3.80982C34.2873 1.70401 32.5833 0 30.4775 0H3.80982ZM7.61929 13.3338V17.1437H11.4291V13.3338H7.61929ZM15.2389 13.3338V17.1437H26.668V13.3338H15.2389ZM7.61929 20.9535V24.7629H11.4291V20.9535H7.61929ZM15.2389 20.9535V24.7629H19.0484V20.9535H15.2389ZM22.8582 22.8582V26.668L32.6576 36.4674L36.4674 32.6576L26.668 22.8582H22.8582ZM37.8218 34.0119L34.0119 37.8218L35.917 39.7265C36.2813 40.0912 36.8917 40.0912 37.2635 39.7265L39.7265 37.2635C40.0912 36.8842 40.0912 36.2813 39.7265 35.917L37.8218 34.0119Z" fill="#252525"/>
</svg>
