<svg width="35" height="35" viewBox="0 0 35 35" fill="none" xmlns="http://www.w3.org/2000/svg">
<path d="M17.5 -0.00170898L0 5.79498V34.9983H35V5.79498L17.5 -0.00170898ZM17.5 3.49809L31.5002 8.20147V31.4985H3.4998V8.20147L17.5 3.49809ZM8.58577 8.74813L8.20318 9.45918C6.63079 11.0316 6.63079 13.465 8.20318 15.0373L15.422 22.2013L16.953 20.6703L26.2502 29.7483L27.836 28.1624L18.8673 19.2482L19.414 18.7015C21.3417 19.7542 23.9943 19.0979 25.922 17.1702C28.1983 15.0715 28.5471 11.7013 26.7968 9.95137C26.0996 9.2541 25.211 8.92597 24.3359 8.74813C22.7638 8.57061 20.8154 9.26099 19.414 10.6624C17.4862 12.5902 16.953 15.2424 17.8281 17.1702L17.2811 17.7171L15.039 15.4203L8.58577 8.74813ZM13.1251 21.9828L7.05473 28.0532L8.64057 29.639L14.7109 23.6234L13.1251 21.9828Z" fill="#471706"/>
<path d="M17.5 -0.00170898L0 5.79498V34.9983H35V5.79498L17.5 -0.00170898ZM17.5 3.49809L31.5002 8.20147V31.4985H3.4998V8.20147L17.5 3.49809ZM8.58577 8.74813L8.20318 9.45918C6.63079 11.0316 6.63079 13.465 8.20318 15.0373L15.422 22.2013L16.953 20.6703L26.2502 29.7483L27.836 28.1624L18.8673 19.2482L19.414 18.7015C21.3417 19.7542 23.9943 19.0979 25.922 17.1702C28.1983 15.0715 28.5471 11.7013 26.7968 9.95137C26.0996 9.2541 25.211 8.92597 24.3359 8.74813C22.7638 8.57061 20.8154 9.26099 19.414 10.6624C17.4862 12.5902 16.953 15.2424 17.8281 17.1702L17.2811 17.7171L15.039 15.4203L8.58577 8.74813ZM13.1251 21.9828L7.05473 28.0532L8.64057 29.639L14.7109 23.6234L13.1251 21.9828Z" fill="black" fill-opacity="0.2"/>
<path d="M17.5 -0.00170898L0 5.79498V34.9983H35V5.79498L17.5 -0.00170898ZM17.5 3.49809L31.5002 8.20147V31.4985H3.4998V8.20147L17.5 3.49809ZM8.58577 8.74813L8.20318 9.45918C6.63079 11.0316 6.63079 13.465 8.20318 15.0373L15.422 22.2013L16.953 20.6703L26.2502 29.7483L27.836 28.1624L18.8673 19.2482L19.414 18.7015C21.3417 19.7542 23.9943 19.0979 25.922 17.1702C28.1983 15.0715 28.5471 11.7013 26.7968 9.95137C26.0996 9.2541 25.211 8.92597 24.3359 8.74813C22.7638 8.57061 20.8154 9.26099 19.414 10.6624C17.4862 12.5902 16.953 15.2424 17.8281 17.1702L17.2811 17.7171L15.039 15.4203L8.58577 8.74813ZM13.1251 21.9828L7.05473 28.0532L8.64057 29.639L14.7109 23.6234L13.1251 21.9828Z" fill="black" fill-opacity="0.2"/>
<path d="M17.5 -0.00170898L0 5.79498V34.9983H35V5.79498L17.5 -0.00170898ZM17.5 3.49809L31.5002 8.20147V31.4985H3.4998V8.20147L17.5 3.49809ZM8.58577 8.74813L8.20318 9.45918C6.63079 11.0316 6.63079 13.465 8.20318 15.0373L15.422 22.2013L16.953 20.6703L26.2502 29.7483L27.836 28.1624L18.8673 19.2482L19.414 18.7015C21.3417 19.7542 23.9943 19.0979 25.922 17.1702C28.1983 15.0715 28.5471 11.7013 26.7968 9.95137C26.0996 9.2541 25.211 8.92597 24.3359 8.74813C22.7638 8.57061 20.8154 9.26099 19.414 10.6624C17.4862 12.5902 16.953 15.2424 17.8281 17.1702L17.2811 17.7171L15.039 15.4203L8.58577 8.74813ZM13.1251 21.9828L7.05473 28.0532L8.64057 29.639L14.7109 23.6234L13.1251 21.9828Z" fill="black" fill-opacity="0.2"/>
<path d="M17.5 -0.00170898L0 5.79498V34.9983H35V5.79498L17.5 -0.00170898ZM17.5 3.49809L31.5002 8.20147V31.4985H3.4998V8.20147L17.5 3.49809ZM8.58577 8.74813L8.20318 9.45918C6.63079 11.0316 6.63079 13.465 8.20318 15.0373L15.422 22.2013L16.953 20.6703L26.2502 29.7483L27.836 28.1624L18.8673 19.2482L19.414 18.7015C21.3417 19.7542 23.9943 19.0979 25.922 17.1702C28.1983 15.0715 28.5471 11.7013 26.7968 9.95137C26.0996 9.2541 25.211 8.92597 24.3359 8.74813C22.7638 8.57061 20.8154 9.26099 19.414 10.6624C17.4862 12.5902 16.953 15.2424 17.8281 17.1702L17.2811 17.7171L15.039 15.4203L8.58577 8.74813ZM13.1251 21.9828L7.05473 28.0532L8.64057 29.639L14.7109 23.6234L13.1251 21.9828Z" fill="black" fill-opacity="0.2"/>
</svg>
