<svg width="39" height="35" viewBox="0 0 39 35" fill="none" xmlns="http://www.w3.org/2000/svg">
<path d="M3.5 0V21H0V26.25C0 29.1416 2.3584 31.5 5.25 31.5H19.25V28L22.75 24.5L19.25 21H7V3.5H29.75V10.5H33.25V0H3.5ZM10.5 7V10.5H14V7H10.5ZM17.5 7V10.5H26.25V7H17.5ZM10.5 14V17.5H14V14H10.5ZM22.75 14V17.5H24.5V20.8496L28.1504 24.5L24.5 28.1504V31.5H22.75V35H38.5V31.5H36.75V28.1504L33.0996 24.5L36.75 20.8496V17.5H38.5V14H22.75ZM28 17.5H33.25V19.4004L30.625 22.0254L28 19.4004V17.5ZM30.625 26.9746L33.25 29.5996V31.5H28V29.5996L30.625 26.9746Z" fill="#252525"/>
</svg>
