<svg width="37" height="35" viewBox="0 0 37 35" fill="none" xmlns="http://www.w3.org/2000/svg">
<path d="M3.91648 -0.00170898V21.3873H7.80549V3.8873H33.0831V29.165C33.0831 30.2664 32.2402 31.1093 31.1388 31.1093C30.068 31.1093 29.1945 30.2357 29.1945 29.165V25.2759H0.027832V29.165C0.027832 32.378 2.64809 34.9983 5.86117 34.9983H31.1388C34.3366 34.9983 36.9722 32.3627 36.9722 29.165V-0.00170898H3.91648ZM11.6945 9.72063V13.6093H15.5831V9.72063H11.6945ZM19.4722 9.72063V13.6093H29.1945V9.72063H19.4722ZM11.6945 17.4983V21.3873H15.5831V17.4983H11.6945ZM19.4722 17.4983V21.3873H29.1945V17.4983H19.4722Z" fill="#471706"/>
<path d="M3.91648 -0.00170898V21.3873H7.80549V3.8873H33.0831V29.165C33.0831 30.2664 32.2402 31.1093 31.1388 31.1093C30.068 31.1093 29.1945 30.2357 29.1945 29.165V25.2759H0.027832V29.165C0.027832 32.378 2.64809 34.9983 5.86117 34.9983H31.1388C34.3366 34.9983 36.9722 32.3627 36.9722 29.165V-0.00170898H3.91648ZM11.6945 9.72063V13.6093H15.5831V9.72063H11.6945ZM19.4722 9.72063V13.6093H29.1945V9.72063H19.4722ZM11.6945 17.4983V21.3873H15.5831V17.4983H11.6945ZM19.4722 17.4983V21.3873H29.1945V17.4983H19.4722Z" fill="black" fill-opacity="0.2"/>
<path d="M3.91648 -0.00170898V21.3873H7.80549V3.8873H33.0831V29.165C33.0831 30.2664 32.2402 31.1093 31.1388 31.1093C30.068 31.1093 29.1945 30.2357 29.1945 29.165V25.2759H0.027832V29.165C0.027832 32.378 2.64809 34.9983 5.86117 34.9983H31.1388C34.3366 34.9983 36.9722 32.3627 36.9722 29.165V-0.00170898H3.91648ZM11.6945 9.72063V13.6093H15.5831V9.72063H11.6945ZM19.4722 9.72063V13.6093H29.1945V9.72063H19.4722ZM11.6945 17.4983V21.3873H15.5831V17.4983H11.6945ZM19.4722 17.4983V21.3873H29.1945V17.4983H19.4722Z" fill="black" fill-opacity="0.2"/>
<path d="M3.91648 -0.00170898V21.3873H7.80549V3.8873H33.0831V29.165C33.0831 30.2664 32.2402 31.1093 31.1388 31.1093C30.068 31.1093 29.1945 30.2357 29.1945 29.165V25.2759H0.027832V29.165C0.027832 32.378 2.64809 34.9983 5.86117 34.9983H31.1388C34.3366 34.9983 36.9722 32.3627 36.9722 29.165V-0.00170898H3.91648ZM11.6945 9.72063V13.6093H15.5831V9.72063H11.6945ZM19.4722 9.72063V13.6093H29.1945V9.72063H19.4722ZM11.6945 17.4983V21.3873H15.5831V17.4983H11.6945ZM19.4722 17.4983V21.3873H29.1945V17.4983H19.4722Z" fill="black" fill-opacity="0.2"/>
<path d="M3.91648 -0.00170898V21.3873H7.80549V3.8873H33.0831V29.165C33.0831 30.2664 32.2402 31.1093 31.1388 31.1093C30.068 31.1093 29.1945 30.2357 29.1945 29.165V25.2759H0.027832V29.165C0.027832 32.378 2.64809 34.9983 5.86117 34.9983H31.1388C34.3366 34.9983 36.9722 32.3627 36.9722 29.165V-0.00170898H3.91648ZM11.6945 9.72063V13.6093H15.5831V9.72063H11.6945ZM19.4722 9.72063V13.6093H29.1945V9.72063H19.4722ZM11.6945 17.4983V21.3873H15.5831V17.4983H11.6945ZM19.4722 17.4983V21.3873H29.1945V17.4983H19.4722Z" fill="black" fill-opacity="0.2"/>
</svg>
